<?xml version="1.0" standalone="no"?>
<!DOCTYPE svg PUBLIC "-//W3C//DTD SVG 20010904//EN"
 "http://www.w3.org/TR/2001/REC-SVG-20010904/DTD/svg10.dtd">
<svg version="1.0" xmlns="http://www.w3.org/2000/svg"
 width="500.000000pt" height="500.000000pt" viewBox="0 0 500.000000 500.000000"
 preserveAspectRatio="xMidYMid meet">
<metadata>
Created by potrace 1.16, written by Peter Selinger 2001-2019
</metadata>
<g transform="translate(0.000000,500.000000) scale(0.100000,-0.100000)"
fill="#000000" stroke="none">
<path d="M2225 4759 c-106 -11 -301 -52 -417 -88 -705 -218 -1262 -762 -1487
-1453 -78 -238 -95 -389 -88 -786 5 -349 13 -401 93 -642 153 -462 488 -898
902 -1172 117 -78 353 -197 487 -246 567 -205 1252 -171 1780 88 133 65 332
194 452 291 165 135 349 337 460 506 146 223 250 451 303 660 59 235 74 357
74 593 1 191 -2 232 -27 370 -35 198 -66 316 -123 460 -87 218 -216 438 -356
605 -137 164 -346 352 -508 457 -102 67 -373 198 -495 241 -121 42 -386 103
-510 117 -105 12 -424 11 -540 -1z m600 -219 c642 -107 1148 -453 1488 -1016
115 -191 231 -547 257 -786 71 -670 -180 -1320 -679 -1765 -85 -76 -275 -214
-317 -230 -8 -3 -34 10 -61 31 -29 22 -74 44 -117 57 -190 54 -278 113 -359
241 -9 15 -44 95 -77 179 -71 178 -84 201 -149 262 -146 137 -368 165 -543 70
-80 -44 -155 -155 -243 -360 -76 -177 -148 -244 -328 -307 -99 -35 -205 -89
-255 -131 -17 -14 -34 -25 -39 -25 -17 0 -192 125 -279 200 -248 213 -465 530
-578 843 -184 508 -167 1023 52 1537 96 226 258 457 449 641 307 294 664 475
1096 554 213 39 467 41 682 5z"/>
<path d="M2071 3855 c-1 -6 -17 -122 -36 -258 -25 -183 -39 -254 -52 -271 -10
-13 -42 -52 -72 -87 -30 -35 -71 -100 -92 -144 -186 -397 -87 -1025 183 -1159
98 -49 174 -31 268 64 86 86 139 195 177 365 20 91 19 373 -3 486 -28 148 -92
309 -150 378 -15 18 -50 50 -79 71 -64 47 -67 57 -100 315 -23 172 -41 275
-44 240z"/>
<path d="M2977 3800 c-4 -14 -27 -131 -52 -260 -26 -129 -48 -242 -51 -251 -2
-8 -25 -31 -50 -49 -90 -68 -148 -193 -193 -417 -25 -123 -39 -314 -28 -407
33 -305 193 -546 362 -546 62 0 110 24 173 86 196 195 261 651 142 1006 -36
108 -77 178 -158 272 l-59 68 -32 237 c-18 130 -36 247 -40 261 l-9 25 -5 -25z"/>
<path d="M1052 2825 c-34 -24 -70 -94 -94 -181 -31 -115 -30 -354 2 -469 12
-44 26 -123 30 -177 5 -53 16 -125 24 -160 63 -274 234 -522 416 -606 275
-128 425 158 299 568 -51 164 -170 349 -287 446 -79 65 -151 94 -232 94 l-58
0 -21 63 c-37 115 -54 269 -41 386 5 50 -5 59 -38 36z"/>
<path d="M3929 2833 c0 -5 0 -60 1 -123 1 -116 -15 -230 -45 -321 l-16 -47
-72 -4 c-54 -2 -87 -10 -131 -32 -71 -35 -183 -142 -246 -235 -127 -190 -201
-462 -170 -631 31 -170 108 -248 236 -237 235 18 492 372 534 736 7 56 10 104
7 107 -2 3 6 38 19 78 35 113 49 262 34 386 -18 163 -61 279 -115 314 -27 18
-35 20 -36 9z"/>
</g>
</svg>
